<svg width="40" height="40" viewBox="0 0 40 40" fill="none" xmlns="http://www.w3.org/2000/svg">
<path d="M39.3327 26.1273L28.0051 20L39.3327 13.8727C39.971 13.5273 40.1894 12.7633 39.821 12.1648L37.1527 7.83437C36.7843 7.23672 35.9685 7.03125 35.3301 7.37656L24.0025 13.5039V1.25C24.0025 0.559375 23.405 0 22.6684 0H17.3316C16.595 0 15.9975 0.559375 15.9975 1.25V13.5047L4.66985 7.37734C4.03151 7.03203 3.21567 7.2375 2.84734 7.83516L0.178978 12.1648C-0.189359 12.7625 0.0289766 13.5273 0.667316 13.8727L11.9949 20L0.667316 26.1273C0.0289766 26.4727 -0.189359 27.2375 0.178978 27.8352L2.84734 32.1656C3.21567 32.7633 4.03151 32.968 4.66985 32.6234L15.9975 26.4961V38.75C15.9975 39.4406 16.595 40 17.3316 40H22.6684C23.405 40 24.0025 39.4406 24.0025 38.75V26.4953L35.3301 32.6227C35.9685 32.968 36.7843 32.7633 37.1527 32.1648L39.821 27.8344C40.1894 27.2367 39.971 26.4727 39.3327 26.1273V26.1273Z" fill="#7793F5"/>
</svg>
