<svg width="44" height="40" viewBox="0 0 44 40" fill="none" xmlns="http://www.w3.org/2000/svg">
<path d="M11.6463 30.3765L14.3545 26.9871L5.63625 20.0022L14.3545 13.0173L11.6463 9.62786L0.813478 18.3075C0.559655 18.5108 0.354747 18.7686 0.213931 19.062C0.0731157 19.3553 0 19.6767 0 20.0022C0 20.3277 0.0731157 20.649 0.213931 20.9424C0.354747 21.2357 0.559655 21.4936 0.813478 21.6969L11.6463 30.3765ZM31.687 9.62786L28.9788 13.0173L37.6971 20.0022L28.9788 26.9871L31.687 30.3765L42.5199 21.6969C42.7737 21.4936 42.9786 21.2357 43.1194 20.9424C43.2602 20.649 43.3333 20.3277 43.3333 20.0022C43.3333 19.6767 43.2602 19.3553 43.1194 19.062C42.9786 18.7686 42.7737 18.5108 42.5199 18.3075L31.687 9.62786ZM28.1144 0.941738L19.4481 40L15.2168 39.0583L23.8831 0L28.1144 0.941738Z" fill="#FFC700"/>
</svg>
