<?xml version="1.0" encoding="utf-8"?>
<!-- Generator: Adobe Illustrator 24.1.2, SVG Export Plug-In . SVG Version: 6.00 Build 0)  -->
<svg version="1.1" id="Layer_1" xmlns="http://www.w3.org/2000/svg" xmlns:xlink="http://www.w3.org/1999/xlink" x="0px" y="0px"
	 viewBox="0 0 32.5 32.5" style="enable-background:new 0 0 32.5 32.5;" xml:space="preserve">
<style type="text/css">
	.st0{fill:none;stroke:#7793F5;stroke-width:2;stroke-linecap:round;stroke-linejoin:round;}
</style>
<path class="st0" d="M9.1,6.2l0.2,0.9C9.4,7.8,9.7,8.5,10.1,9c0.4,0.5,1,0.9,1.6,1.1l0.2,0.1l-0.2,0.1c-0.6,0.2-1.2,0.6-1.6,1.1
	c-0.4,0.5-0.7,1.1-0.9,1.8l-0.2,0.9l-0.2-0.9c-0.1-0.7-0.4-1.3-0.9-1.8c-0.4-0.5-1-0.9-1.6-1.1l-0.2-0.1l0.2-0.1
	C7.1,9.9,7.6,9.5,8.1,9c0.4-0.5,0.7-1.1,0.9-1.8L9.1,6.2z M11.9,20.2l0.2,1.3c0.1,0.3,0.2,0.6,0.4,0.9c0.2,0.3,0.5,0.5,0.8,0.6
	l0.5,0.2l-0.5,0.2c-0.3,0.1-0.6,0.3-0.8,0.6c-0.2,0.3-0.3,0.6-0.4,0.9l-0.2,1.3L11.7,25c-0.1-0.3-0.2-0.6-0.4-0.9
	c-0.2-0.3-0.5-0.5-0.8-0.6L10,23.2l0.5-0.2c0.3-0.1,0.6-0.3,0.8-0.6c0.2-0.3,0.3-0.6,0.4-0.9L11.9,20.2z M19.6,7.2l0.5,2.7
	c0.3,1.4,0.9,2.6,1.7,3.6c0.9,1,2,1.8,3.2,2.3l1.2,0.4l-1.2,0.4c-1.2,0.5-2.4,1.2-3.2,2.3c-0.9,1-1.5,2.3-1.7,3.6l-0.5,2.7L19,22.6
	c-0.3-1.4-0.9-2.6-1.7-3.6c-0.9-1-2-1.8-3.2-2.3l-1.2-0.4l1.2-0.4c1.2-0.5,2.4-1.2,3.2-2.3c0.9-1,1.5-2.3,1.7-3.6L19.6,7.2z"/>
</svg>
