<svg width="40" height="40" viewBox="0 0 40 40" fill="none" xmlns="http://www.w3.org/2000/svg">
<path d="M0 8.33333C0 6.1232 0.877974 4.00358 2.44078 2.44078C4.00358 0.877974 6.1232 0 8.33333 0H31.6667C33.8768 0 35.9964 0.877974 37.5592 2.44078C39.122 4.00358 40 6.1232 40 8.33333V31.6667C40 33.8768 39.122 35.9964 37.5592 37.5592C35.9964 39.122 33.8768 40 31.6667 40H8.33333C6.1232 40 4.00358 39.122 2.44078 37.5592C0.877974 35.9964 0 33.8768 0 31.6667V8.33333ZM18.3333 13.3333C17.8913 13.3333 17.4674 13.5089 17.1548 13.8215C16.8423 14.134 16.6667 14.558 16.6667 15V28.3333C16.6667 28.7754 16.4911 29.1993 16.1785 29.5118C15.8659 29.8244 15.442 30 15 30H11.6667C11.2246 30 10.8007 30.1756 10.4882 30.4882C10.1756 30.8007 10 31.2246 10 31.6667C10 32.1087 10.1756 32.5326 10.4882 32.8452C10.8007 33.1577 11.2246 33.3333 11.6667 33.3333H15C16.3261 33.3333 17.5979 32.8065 18.5355 31.8689C19.4732 30.9312 20 29.6594 20 28.3333V15C20 14.558 19.8244 14.134 19.5118 13.8215C19.1993 13.5089 18.7754 13.3333 18.3333 13.3333ZM21.6667 18.3333V20C21.6667 21.3261 22.1934 22.5979 23.1311 23.5355C24.0688 24.4732 25.3406 25 26.6667 25H28.3333C28.7754 25 29.1993 25.1756 29.5118 25.4882C29.8244 25.8007 30 26.2246 30 26.6667V28.3333C30 28.7754 29.8244 29.1993 29.5118 29.5118C29.1993 29.8244 28.7754 30 28.3333 30H23.3333C22.8913 30 22.4674 30.1756 22.1548 30.4882C21.8423 30.8007 21.6667 31.2246 21.6667 31.6667C21.6667 32.1087 21.8423 32.5326 22.1548 32.8452C22.4674 33.1577 22.8913 33.3333 23.3333 33.3333H28.3333C29.6594 33.3333 30.9312 32.8065 31.8689 31.8689C32.8065 30.9312 33.3333 29.6594 33.3333 28.3333V26.6667C33.3333 25.3406 32.8065 24.0688 31.8689 23.1311C30.9312 22.1934 29.6594 21.6667 28.3333 21.6667H26.6667C26.2246 21.6667 25.8007 21.4911 25.4882 21.1785C25.1756 20.866 25 20.442 25 20V18.3333C25 17.8913 25.1756 17.4674 25.4882 17.1548C25.8007 16.8423 26.2246 16.6667 26.6667 16.6667H31.6667C32.1087 16.6667 32.5326 16.4911 32.8452 16.1785C33.1577 15.8659 33.3333 15.442 33.3333 15C33.3333 14.558 33.1577 14.134 32.8452 13.8215C32.5326 13.5089 32.1087 13.3333 31.6667 13.3333H26.6667C25.3406 13.3333 24.0688 13.8601 23.1311 14.7978C22.1934 15.7355 21.6667 17.0073 21.6667 18.3333V18.3333Z" fill="#F24E1E"/>
</svg>
