<svg width="40" height="40" viewBox="0 0 40 40" fill="none" xmlns="http://www.w3.org/2000/svg">
<path d="M33.3334 13.3333H23.98L25.8517 7.72159C26.1884 6.70825 26.0184 5.58492 25.3934 4.71825C24.7684 3.85159 23.755 3.33325 22.6867 3.33325H20C19.505 3.33325 19.0367 3.55325 18.7184 3.93325L10.885 13.3333H6.66671C4.82837 13.3333 3.33337 14.8283 3.33337 16.6666V31.6666C3.33337 33.5049 4.82837 34.9999 6.66671 34.9999H28.845C29.5232 34.9977 30.1847 34.7897 30.7421 34.4034C31.2995 34.0171 31.7265 33.4708 31.9667 32.8366L36.5617 20.5849C36.6315 20.3978 36.667 20.1996 36.6667 19.9999V16.6666C36.6667 14.8283 35.1717 13.3333 33.3334 13.3333ZM6.66671 16.6666H10V31.6666H6.66671V16.6666ZM33.3334 19.6983L28.845 31.6666H13.3334V15.6033L20.78 6.66659H22.69L20.0867 14.4716C20.0022 14.7221 19.9786 14.9892 20.0179 15.2506C20.0573 15.5121 20.1583 15.7604 20.3128 15.975C20.4673 16.1896 20.6707 16.3642 20.9061 16.4845C21.1416 16.6048 21.4023 16.6672 21.6667 16.6666H33.3334V19.6983Z" fill="#FFFFFF"/>
</svg>
