<?xml version="1.0" encoding="utf-8"?>
<!-- Generator: Adobe Illustrator 24.1.2, SVG Export Plug-In . SVG Version: 6.00 Build 0)  -->
<svg version="1.1" id="Layer_1" xmlns="http://www.w3.org/2000/svg" xmlns:xlink="http://www.w3.org/1999/xlink" x="0px" y="0px"
	 viewBox="0 0 34.8 35.5" style="enable-background:new 0 0 34.8 35.5;" xml:space="preserve">
<style type="text/css">
	.st0{fill:none;stroke:#7793F5;stroke-width:2.4613;}
	.st1{fill:none;stroke:#7793F5;stroke-width:2.4613;stroke-linecap:round;stroke-linejoin:round;}
</style>
<path class="st0" d="M17.4,17.6c3.7,0,6.7-3,6.7-6.7c0-3.7-3-6.7-6.7-6.7c-3.7,0-6.7,3-6.7,6.7C10.7,14.6,13.7,17.6,17.4,17.6z"/>
<path class="st1" d="M24.1,20.2h0.5c1,0,1.9,0.4,2.6,1c0.7,0.6,1.2,1.5,1.3,2.5l0.5,4.2c0,0.4,0,0.8-0.1,1.1c-0.1,0.4-0.3,0.7-0.5,1
	c-0.3,0.3-0.6,0.5-0.9,0.7s-0.7,0.2-1.1,0.2h-18c-0.4,0-0.8-0.1-1.1-0.2C7,30.5,6.6,30.3,6.4,30c-0.3-0.3-0.4-0.6-0.5-1
	c-0.1-0.4-0.1-0.7-0.1-1.1l0.5-4.2c0.1-1,0.6-1.9,1.3-2.5c0.7-0.6,1.7-1,2.6-1h0.5"/>
</svg>
